<svg width="1920" height="1357" viewBox="0 0 1920 1357" fill="none" xmlns="http://www.w3.org/2000/svg">
<rect width="1920" height="1357" fill="black"/>
<path d="M1707 421L1714.31 453.355L1742.36 435.645L1724.64 463.691L1757 471L1724.64 478.309L1742.36 506.355L1714.31 488.645L1707 521L1699.69 488.645L1671.64 506.355L1689.36 478.309L1657 471L1689.36 463.691L1671.64 435.645L1699.69 453.355L1707 421Z" fill="white"/>
<path d="M382 769L389.309 801.355L417.355 783.645L399.645 811.691L432 819L399.645 826.309L417.355 854.355L389.309 836.645L382 869L374.691 836.645L346.645 854.355L364.355 826.309L332 819L364.355 811.691L346.645 783.645L374.691 801.355L382 769Z" fill="white"/>
<path d="M1757 1052L1764.31 1084.36L1792.36 1066.64L1774.64 1094.69L1807 1102L1774.64 1109.31L1792.36 1137.36L1764.31 1119.64L1757 1152L1749.69 1119.64L1721.64 1137.36L1739.36 1109.31L1707 1102L1739.36 1094.69L1721.64 1066.64L1749.69 1084.36L1757 1052Z" fill="white"/>
<path d="M250 174L257.309 206.355L285.355 188.645L267.645 216.691L300 224L267.645 231.309L285.355 259.355L257.309 241.645L250 274L242.691 241.645L214.645 259.355L232.355 231.309L200 224L232.355 216.691L214.645 188.645L242.691 206.355L250 174Z" fill="white"/>
</svg>
